<svg width="168" height="113" viewBox="0 0 168 113" fill="none" xmlns="http://www.w3.org/2000/svg">
<path d="M15.7852 31.64C15.7852 27.2714 12.2516 23.73 7.89262 23.73C3.53365 23.73 0 27.2714 0 31.64V56.5C0 60.8686 3.53365 64.41 7.89262 64.41C12.2516 64.41 15.7852 60.8686 15.7852 56.5V31.64Z" fill="#B91F33"/>
<path d="M168 31.64C168 27.2714 164.466 23.73 160.107 23.73C155.748 23.73 152.215 27.2714 152.215 31.64V56.5C152.215 60.8686 155.748 64.41 160.107 64.41C164.466 64.41 168 60.8686 168 56.5V31.64Z" fill="#B91F33"/>
<path d="M91.3289 31.64C91.3289 27.2714 87.7952 23.73 83.4363 23.73C79.0773 23.73 75.5436 27.2714 75.5436 31.64V56.5C75.5436 60.8686 79.0773 64.41 83.4363 64.41C87.7952 64.41 91.3289 60.8686 91.3289 56.5V31.64Z" fill="#B91F33"/>
<path d="M40.5906 21.47C40.5906 17.1014 37.0569 13.56 32.698 13.56C28.339 13.56 24.8054 17.1014 24.8054 21.47V66.67C24.8054 71.0386 28.339 74.58 32.698 74.58C37.0569 74.58 40.5906 71.0386 40.5906 66.67V21.47Z" fill="#B91F33"/>
<path d="M142.067 21.47C142.067 17.1014 138.533 13.56 134.174 13.56C129.816 13.56 126.282 17.1014 126.282 21.47V66.67C126.282 71.0386 129.816 74.58 134.174 74.58C138.533 74.58 142.067 71.0386 142.067 66.67V21.47Z" fill="#B91F33"/>
<path d="M66.5235 7.91C66.5235 3.54143 62.9899 0 58.6309 0C54.2719 0 50.7383 3.54143 50.7383 7.91V80.23C50.7383 84.5986 54.2719 88.14 58.6309 88.14C62.9899 88.14 66.5235 84.5986 66.5235 80.23V7.91Z" fill="#B91F33"/>
<path d="M117.262 7.91C117.262 3.54143 113.728 0 109.369 0C105.01 0 101.477 3.54143 101.477 7.91V80.23C101.477 84.5986 105.01 88.14 109.369 88.14C113.728 88.14 117.262 84.5986 117.262 80.23V7.91Z" fill="#B91F33"/>
<path d="M27.2807 92.66H32.6141V113H27.2807V104.953H23.3737V113H18.0403V92.66H23.3737V100.992H27.2807V92.66Z" fill="white"/>
<path d="M45.2283 113L44.6082 109.959H39.8329L39.1818 113H33.8484L38.9647 92.66H45.5694L50.6857 113H45.2283ZM40.6701 106.03H43.771L42.2515 98.7113L40.6701 106.03Z" fill="white"/>
<path d="M57.3516 105.776V113H51.925V92.66H61.1345C64.1733 92.66 65.6927 93.9696 65.6927 96.5886V101.848C65.6927 103.854 64.8038 105.09 63.026 105.555L66.6849 113H60.8554L57.6926 105.776H57.3516ZM59.491 96.6203H57.3516V102.006H59.491C60.0079 102.006 60.2663 101.774 60.2663 101.309V97.3173C60.2663 96.8526 60.0079 96.6203 59.491 96.6203Z" fill="white"/>
<path d="M68.1632 92.66H77.3106C80.3494 92.66 81.8688 93.9696 81.8688 96.5886V109.071C81.8688 111.69 80.3494 113 77.3106 113H68.1632V92.66ZM76.4424 108.66V97.0005C76.4424 96.5358 76.1839 96.3035 75.6672 96.3035H73.5896V109.357H75.6672C76.1839 109.357 76.4424 109.124 76.4424 108.66Z" fill="white"/>
<path d="M103.807 100.264H98.3803V97.0005C98.3803 96.5358 98.1219 96.3035 97.6052 96.3035H96.5198C96.0031 96.3035 95.7447 96.5358 95.7447 97.0005V108.66C95.7447 109.124 96.0031 109.357 96.5198 109.357H97.6052C98.1219 109.357 98.3803 109.124 98.3803 108.66V105.523H103.807V109.071C103.807 111.69 102.287 113 99.2487 113H94.8765C91.8377 113 90.3183 111.69 90.3183 109.071V96.5886C90.3183 93.9696 91.8377 92.66 94.8765 92.66H99.2487C102.287 92.66 103.807 93.9696 103.807 96.5886V100.264Z" fill="white"/>
<path d="M110.291 92.66H114.88C117.919 92.66 119.439 93.9696 119.439 96.5886V109.071C119.439 111.69 117.919 113 114.88 113H110.291C107.252 113 105.733 111.69 105.733 109.071V96.5886C105.733 93.9696 107.252 92.66 110.291 92.66ZM114.012 108.343V97.3173C114.012 96.8526 113.754 96.6203 113.237 96.6203H111.935C111.418 96.6203 111.159 96.8526 111.159 97.3173V108.343C111.159 108.807 111.418 109.04 111.935 109.04H113.237C113.754 109.04 114.012 108.807 114.012 108.343Z" fill="white"/>
<path d="M127.241 105.776V113H121.815V92.66H131.024C134.063 92.66 135.582 93.9696 135.582 96.5886V101.848C135.582 103.854 134.693 105.09 132.915 105.555L136.574 113H130.745L127.582 105.776H127.241ZM129.38 96.6203H127.241V102.006H129.38C129.898 102.006 130.156 101.774 130.156 101.309V97.3173C130.156 96.8526 129.898 96.6203 129.38 96.6203Z" fill="white"/>
<path d="M143.169 109.04H149.96V113H137.742V92.66H149.68V96.6203H143.169V100.771H148.781V104.731H143.169V109.04Z" fill="white"/>
</svg>
