<svg width="38" height="31" viewBox="0 0 38 31" fill="none" xmlns="http://www.w3.org/2000/svg">
<path d="M9.14188 30.24C7.38188 30.24 5.94188 29.88 4.82188 29.16C3.70188 28.44 2.78188 27.52 2.06188 26.4C1.18188 25.12 0.621881 23.72 0.381881 22.2C0.141881 20.68 0.0218811 19.44 0.0218811 18.48C0.0218811 14.56 1.02188 11 3.02188 7.80001C5.02188 4.60001 8.14188 2 12.3819 0L13.4619 2.16C10.9819 3.2 8.82188 4.84 6.98188 7.08C5.22188 9.32 4.34188 11.6 4.34188 13.92C4.34188 14.88 4.46188 15.72 4.70188 16.44C5.98188 15.4 7.46188 14.88 9.14188 14.88C11.2219 14.88 13.0219 15.56 14.5419 16.92C16.0619 18.28 16.8219 20.16 16.8219 22.56C16.8219 24.8 16.0619 26.64 14.5419 28.08C13.0219 29.52 11.2219 30.24 9.14188 30.24ZM29.5419 30.24C27.7819 30.24 26.3419 29.88 25.2219 29.16C24.1019 28.44 23.1819 27.52 22.4619 26.4C21.5819 25.12 21.0219 23.72 20.7819 22.2C20.5419 20.68 20.4219 19.44 20.4219 18.48C20.4219 14.56 21.4219 11 23.4219 7.80001C25.4219 4.60001 28.5419 2 32.7819 0L33.8619 2.16C31.3819 3.2 29.2219 4.84 27.3819 7.08C25.6219 9.32 24.7419 11.6 24.7419 13.92C24.7419 14.88 24.8619 15.72 25.1019 16.44C26.3819 15.4 27.8619 14.88 29.5419 14.88C31.6219 14.88 33.4219 15.56 34.9419 16.92C36.4619 18.28 37.2219 20.16 37.2219 22.56C37.2219 24.8 36.4619 26.64 34.9419 28.08C33.4219 29.52 31.6219 30.24 29.5419 30.24Z" fill="#473C38"/>
</svg>
