<svg width="39" height="50" viewBox="0 0 39 50" fill="none" xmlns="http://www.w3.org/2000/svg">
<path d="M13.3421 4.16718C8.2417 4.16718 4.10553 8.36321 4.10553 13.5406C4.10553 14.1174 4.56447 14.5849 5.13245 14.5849C5.699 14.5849 6.15794 14.1174 6.15794 13.5406C6.15794 11.5938 6.90621 9.76286 8.26237 8.38492C9.61995 7.00844 11.4244 6.25 13.3421 6.25C13.9093 6.25 14.3676 5.78321 14.3676 5.20786C14.3676 4.63396 13.9093 4.16718 13.3421 4.16718Z" fill="white"/>
<path d="M39 13.5405C39 6.06247 33.0259 0 25.6579 0C23.4373 0 21.3429 0.552186 19.5 1.52629C17.6571 0.552186 15.5627 0 13.3421 0C5.97407 0 0 6.06247 0 13.5405C0 15.5958 0.451102 17.5433 1.25852 19.2874L5.27853 28.1253C4.31647 31.2503 5.88285 50 12.3159 50C14.3391 50 17.5153 32.5703 19.4986 32.5566C19.5 32.5566 19.5 32.5566 19.5014 32.5566C21.4847 32.5566 24.6595 50 26.6813 50C33.1143 50 34.6821 31.2503 33.7186 28.1253L37.7415 19.2874C38.5489 17.5433 39 15.5958 39 13.5405ZM35.8836 18.4024L35.8822 18.4081L35.8772 18.4147L31.8558 27.2511L31.5237 27.9799L31.7596 28.7463C31.9598 29.3932 32.0888 32.5139 31.4895 36.7982C30.8716 41.2265 29.7435 44.8306 28.398 46.6876C28.0538 47.1624 27.716 47.5011 27.3832 47.7008C27.2015 47.31 26.9464 46.6862 26.605 45.7034C26.0969 44.2321 25.551 42.3924 25.0215 40.6114C22.7867 33.0783 21.8902 30.4716 19.5014 30.4716H19.485C17.1055 30.4889 16.2119 33.0907 13.9799 40.6085C13.4504 42.3874 12.9031 44.2292 12.3935 45.7019C12.0522 46.6862 11.7971 47.31 11.6132 47.7008C11.2825 47.5011 10.9426 47.1624 10.5984 46.6876C9.25293 44.8306 8.12696 41.2265 7.50625 36.7982C6.90763 32.5139 7.03733 29.3932 7.23687 28.7463L7.47347 27.9799L7.14066 27.2525L3.12208 18.4147L3.11923 18.4081L3.11638 18.4024C2.41015 16.8746 2.05383 15.2405 2.05383 13.5405C2.05383 10.4814 3.22755 7.60396 5.35977 5.44008C7.49128 3.27621 10.3269 2.08282 13.3421 2.08282C15.1793 2.08282 16.9324 2.51777 18.5515 3.37391L19.5 3.87616L20.4485 3.37391C22.0676 2.51777 23.8207 2.08282 25.6579 2.08282C28.6738 2.08282 31.5087 3.27621 33.6409 5.44008C35.7724 7.60324 36.9462 10.4814 36.9462 13.5405C36.9462 15.2405 36.5898 16.8746 35.8836 18.4024Z" fill="white"/>
</svg>
