<svg width="49" height="50" viewBox="0 0 49 50" fill="none" xmlns="http://www.w3.org/2000/svg">
<path d="M37.8387 43.7522C36.7473 43.7522 35.7202 43.1706 35.2067 42.325L31.2178 33.9478C31.212 33.9346 31.2039 33.9244 31.1959 33.9134L32.3377 31.7811C33.0107 32.1432 33.5806 32.6772 33.9558 33.3414L39.0201 43.7522H37.8387ZM29.1337 33.3553H11.5461L13.1057 31.2763H30.2493L29.1337 33.3553ZM27.1565 37.5132H12.1869L11.1467 35.4342H29.2376C29.2376 36.5827 28.3035 37.5132 27.1565 37.5132ZM22.0498 47.9108H17.6908L16.8576 39.595H22.8823L22.0498 47.9108ZM9.60615 32.4723L2.76144 19.8443C2.78265 19.8414 2.80679 19.8414 2.82801 19.8392H3.21863C3.37079 19.8392 3.52221 19.8312 3.66851 19.8151C5.02326 19.8341 6.64135 20.1508 7.51697 21.3973L11.5322 29.9069L9.60615 32.4723ZM2.17843 17.7603V12.5629H3.21936C4.36856 12.5629 5.3005 13.4956 5.3005 14.6418V15.6813C5.3005 16.723 4.52876 17.5876 3.52513 17.7368C3.25082 17.7368 2.98528 17.7442 2.74023 17.7603H2.17843ZM47.954 43.5795C47.8603 43.0163 47.3285 42.6337 46.7565 42.7259L41.2797 43.6381L35.797 32.3765C34.6932 30.4153 32.6099 29.1974 30.3554 29.1974H14.271L15.3112 27.1184H25.0724C25.6474 27.1184 26.1133 26.6525 26.1133 26.079C26.1133 25.5047 25.6474 25.0395 25.0724 25.0395H14.6675C14.2739 25.0395 13.9118 25.2597 13.7362 25.6137L12.7429 27.5968L9.36402 20.4368C9.34208 20.3893 9.31867 20.3476 9.28868 20.3015C8.57107 19.2277 7.57549 18.5817 6.51919 18.2072C7.05904 17.505 7.38091 16.6308 7.38091 15.6813V14.6418C7.38091 12.3508 5.51556 10.4839 3.21863 10.4839H1.13749C0.56326 10.4839 0.09729 10.9492 0.09729 11.5234V18.7997C0.09729 18.8422 0.105337 18.8817 0.110457 18.9219C0.0870489 19.1267 0.12143 19.3396 0.222378 19.5261L8.53888 34.8702L10.6142 39.0179C10.7897 39.3712 11.1496 39.595 11.5461 39.595H14.7655L15.5987 47.9108H11.5461C10.9711 47.9108 10.5052 48.3753 10.5052 48.9503C10.5052 49.5245 10.9711 49.989 11.5461 49.989H28.1967C28.7716 49.989 29.2369 49.5245 29.2369 48.9503C29.2369 48.3753 28.7716 47.9108 28.1967 47.9108H24.1412L24.9744 39.595H27.1565C28.6363 39.595 29.9377 38.813 30.6743 37.6463L33.3757 43.3089C34.3099 44.8641 36.0201 45.8319 37.8379 45.8319H40.6857C40.7413 45.8319 40.7976 45.826 40.8561 45.818L47.0996 44.7785C47.6657 44.6827 48.0498 44.1487 47.9532 43.5795" fill="white"/>
<path d="M37.0428 26.3789C36.4686 26.3789 36.0026 26.8368 36.0026 27.4184C36.0026 27.9904 36.4686 28.4586 37.0428 28.4586C37.6148 28.4586 38.0837 27.9904 38.0837 27.4184C38.0837 26.8368 37.6148 26.3789 37.0428 26.3789Z" fill="white"/>
<path d="M22.5611 6.88202C26.8719 6.88202 30.4431 9.5213 31.2419 12.0787H13.8818C14.6806 9.5213 18.2518 6.88202 22.5611 6.88202ZM27.2179 2.62245C27.809 2.03286 28.836 2.03505 29.4263 2.62245C30.0328 3.2318 30.0328 4.2208 29.4263 4.82941L28.1674 6.08687C27.1594 5.59237 26.0417 5.21492 24.8383 5.00205L27.2179 2.62245ZM12.6741 14.1605H32.4467C33.0217 14.1605 33.4877 13.6924 33.4877 13.1189C33.4877 11.0341 32.1702 8.81686 29.9991 7.1973L30.8981 6.29901C31.7416 5.45631 32.0795 4.30273 31.923 3.20473H33.9193C35.0626 3.20473 36.0026 4.14033 36.0026 5.2866V23.2605C36.0026 23.8318 36.4686 24.3 37.0428 24.3C37.6148 24.3 38.0837 23.8318 38.0837 23.2605V5.2866C38.0837 2.98674 36.2206 1.12579 33.9193 1.12579H30.8689C29.4476 -0.264807 27.1565 -0.256761 25.7461 1.15212L22.0842 4.81332C16.0697 5.02838 11.6339 9.29527 11.6339 13.1189C11.6339 13.6924 12.0991 14.1605 12.6741 14.1605Z" fill="white"/>
</svg>
