<svg width="167" height="62" viewBox="0 0 167 62" fill="none" xmlns="http://www.w3.org/2000/svg">
<path d="M46.9716 32.5791C46.7975 32.9781 46.6212 33.377 46.4448 33.7738C45.8365 33.8311 45.14 33.9038 44.481 33.9964C42.7529 34.2366 40.5819 34.9331 36.2596 36.9477C31.9395 38.9667 28.2674 43.6483 25.3514 47.8956C22.4353 52.1452 19.5545 61.6163 17.2137 61.9756C14.8751 62.3371 12.9664 58.5922 12.0649 57.0802C11.1656 55.566 8.93281 50.8491 7.92552 48.4731C6.91824 46.0948 3.94046 37.6222 2.3557 32.0524C0.773133 26.4803 0.149364 21.1045 0.00389208 14.1416C-0.139376 7.17878 3.70021 3.3392 6.96452 2.04317C7.00861 2.02554 7.05049 2.01011 7.09677 1.99468C8.78734 1.40397 11.7365 1.85582 15.1925 3.19152C18.5979 4.50959 22.4948 6.68947 26.1559 9.58128C26.1559 9.58128 19.8432 6.69828 15.4504 6.80849C11.0576 6.91649 7.99826 9.36528 6.41349 12.5326C4.82873 15.7021 4.46945 22.2572 5.04473 27.5868C5.62221 32.9164 7.92552 41.1267 9.36482 45.5923C10.8063 50.0579 13.3631 54.1267 14.9831 55.2067C16.6032 56.2867 17.5752 54.6667 19.6867 50.1042C21.7983 45.5438 27.3196 40.3575 30.1034 38.1005C32.6801 36.0132 40.8243 33.0817 46.9716 32.5791Z" fill="#0275D8"/>
<path d="M6.77277 1.13064C9.12457 0.121146 14.7892 0.601646 20.2135 3.6742C25.6401 6.74675 30.1034 9.3873 35.4793 7.89951C40.8574 6.41172 47.1942 4.39495 51.0823 6.5065C54.9704 8.62026 54.9219 14.2849 53.3856 20.0487C51.8494 25.8102 45.6095 40.406 42.4399 44.9685C39.2726 49.5289 38.2653 51.4024 38.2653 51.4024C59.0502 30.084 61.2103 12.8941 60.419 9.58126C59.6277 6.26846 58.7152 4.97023 57.082 3.91445C55.4509 2.85867 51.2741 0.747119 45.5125 2.37817C39.7531 4.01143 37.5446 5.16198 36.0083 5.69097C34.472 6.21997 30.5597 6.55499 28.4481 5.97972C26.3344 5.40223 19.3495 1.03365 15.5584 0.312906C9.90483 -0.718626 6.77277 1.13064 6.77277 1.13064Z" fill="#0275D8"/>
<path d="M86.6283 14.9459C86.8973 16.3169 87.0714 17.959 87.1485 19.8744C87.1662 21.3092 87.0515 22.8235 86.8047 24.4149C86.5622 26.0084 86.1214 27.5976 85.4822 29.1846C85.0766 30.1258 84.6028 31.0184 84.0627 31.8648C83.5205 32.7156 82.8835 33.4959 82.1496 34.2012C81.5787 34.7588 80.9461 35.2195 80.254 35.5854C79.4892 35.9953 78.6626 36.24 77.7766 36.3171C76.8949 36.3921 76.0243 36.2687 75.1669 35.9469C74.3073 35.6228 73.527 35.0674 72.8217 34.2805C72.1737 33.5333 71.6447 32.7134 71.2347 31.8207C70.2936 29.7533 69.7447 27.5888 69.586 25.3318C69.4736 23.9806 69.5001 22.6427 69.6654 21.3203C69.8351 19.9978 70.1679 18.6974 70.6617 17.4146C70.8556 16.8812 71.0848 16.3632 71.3493 15.8628C71.5124 15.5631 71.5279 15.2633 71.3934 14.9636C70.9394 13.8703 70.6661 12.7374 70.5735 11.5604C70.503 10.4142 70.6749 9.33863 71.0937 8.33355C71.5102 7.32406 72.0943 6.46445 72.8481 5.75913C73.5998 5.05381 74.4439 4.57552 75.3785 4.32204C77.6576 3.73574 79.7559 4.13249 81.6735 5.51227C82.8593 6.3829 83.8027 7.47394 84.5036 8.78319C85.0193 9.75301 85.4491 10.7537 85.7908 11.7808C86.1302 12.8101 86.4101 13.8659 86.6283 14.9459ZM84.5477 28.1531C84.9929 26.9011 85.3147 25.6359 85.5087 24.3531C85.707 23.0659 85.8172 21.7831 85.8349 20.5003C85.8349 17.8333 85.469 15.2501 84.7416 12.7506C84.5124 11.9814 84.2413 11.2254 83.9305 10.4848C83.6241 9.73978 83.2472 9.02565 82.802 8.34237C82.3964 7.70758 81.9247 7.13891 81.3913 6.63197C80.8624 6.12722 80.254 5.70403 79.5663 5.36239C78.7552 4.96344 77.9463 4.76727 77.1418 4.77168C76.3417 4.77829 75.5592 5.04279 74.7966 5.56517C73.8268 6.23081 73.095 7.02871 72.6013 7.96326C72.112 8.89781 71.8916 9.95579 71.94 11.1372C72.0458 14.1304 73.2295 16.6255 75.4931 18.6224C76.2161 19.2638 76.9853 19.8193 77.803 20.2887C78.6186 20.7604 79.4892 21.1219 80.4127 21.3732C80.4524 21.3908 80.4965 21.4062 80.545 21.4172C80.6331 21.4239 80.7169 21.4437 80.8006 21.479C80.8822 21.5098 80.9549 21.5561 81.0211 21.62C81.0563 21.6553 81.0784 21.6994 81.0916 21.7523C81.1092 21.8008 81.118 21.8448 81.118 21.8845C81.1048 21.9198 81.085 21.9617 81.0563 22.008C81.0321 22.0498 81.0034 22.0785 80.9682 22.0961C80.7852 22.1975 80.6001 22.2019 80.4127 22.1138C80.1174 21.9727 79.8132 21.8647 79.4958 21.7875C79.4429 21.7765 79.3944 21.7655 79.3547 21.7523C76.5511 21.0007 74.2963 19.4666 72.5925 17.1501C72.5616 17.1148 72.5396 17.0795 72.5219 17.0443C72.4867 16.9737 72.4426 16.9164 72.3897 16.8679C72.3368 16.815 72.2663 16.8018 72.1781 16.8238C72.112 16.8371 72.0657 16.8679 72.037 16.9208C72.0128 16.9693 71.9952 17.0244 71.9841 17.0883C71.9709 17.1302 71.9577 17.1655 71.94 17.1941C71.9048 17.2779 71.8739 17.3595 71.8519 17.441C71.8453 17.4763 71.8276 17.5159 71.799 17.5556C71.1157 19.5195 70.763 21.4856 70.741 23.4539C70.7234 25.4177 71.0077 27.3904 71.5962 29.3697C71.7946 30.0751 72.0458 30.7583 72.3456 31.4152C72.6454 32.072 73.009 32.7024 73.4389 33.3019C73.937 34.0116 74.5586 34.5913 75.2991 35.0387C76.3681 35.6912 77.49 35.7992 78.667 35.365C79.3415 35.0939 79.9631 34.7302 80.5273 34.2717C81.0739 33.8243 81.5633 33.3283 81.9997 32.7817C82.5507 32.0808 83.0356 31.3446 83.4544 30.5688C83.8776 29.7929 84.2413 28.9884 84.5477 28.1531Z" fill="#003366"/>
<path d="M94.1602 27.58C94.2418 27.3816 94.3321 27.2802 94.4335 27.2802C94.5327 27.2802 94.5658 27.3816 94.5305 27.58C94.3652 28.0869 94.169 28.5718 93.9398 29.0347C93.715 29.4998 93.4064 29.9142 93.0141 30.2778C92.7187 30.5776 92.3661 30.7694 91.9561 30.8509C91.3962 30.9347 90.9356 30.8685 90.5719 30.6569C90.206 30.4409 89.9195 30.1346 89.7079 29.74C89.4963 29.3411 89.3376 28.9069 89.2318 28.4352C89.126 27.9591 89.0577 27.4984 89.029 27.051C88.9519 26.2112 88.8924 25.107 88.8527 23.736C88.8174 22.3606 88.8306 20.9103 88.8968 19.3806C88.9607 17.8532 89.1106 16.4359 89.3464 15.1311C89.58 13.8218 89.9239 12.8079 90.3779 12.0894C90.6424 11.7367 90.9466 11.5582 91.2949 11.5516C91.6475 11.5472 91.9583 11.7081 92.2294 12.0365C92.4101 12.29 92.549 12.5567 92.6438 12.8388C92.7363 13.1209 92.7981 13.4074 92.8289 13.694C92.9281 14.6991 92.9171 15.7615 92.7937 16.8767C92.6702 17.9942 92.4719 19.1867 92.203 20.4562C91.9385 21.7258 91.6211 22.8433 91.2508 23.8065C90.8805 24.7719 90.5719 25.5346 90.325 26.0988C90.1884 26.328 90.1399 26.6719 90.1752 27.1303C90.2148 27.6307 90.3096 28.1531 90.4573 28.6997C90.6028 29.2419 90.8099 29.6695 91.0744 29.9869C91.3213 30.2514 91.5968 30.3351 91.9032 30.2338C92.2074 30.1346 92.5137 29.9296 92.8201 29.6166C93.1243 29.2992 93.3932 28.9532 93.6224 28.5762C93.856 28.2015 94.0368 27.8687 94.1602 27.58ZM90.2016 19.989C90.1707 20.313 90.1421 20.8067 90.1134 21.4701C90.0892 22.1292 90.0649 22.8014 90.0429 23.4891C90.0187 24.2473 89.9944 24.8425 89.9724 25.2701C90.2126 24.7234 90.4948 23.9299 90.8188 22.8896C91.1406 21.8493 91.4359 20.6238 91.7004 19.2131C91.9649 17.8025 92.1346 16.2772 92.2118 14.6373C92.1699 13.6741 92.0553 13.0217 91.8679 12.6801C91.685 12.3406 91.4844 12.3098 91.2684 12.5919C91.0502 12.874 90.8761 13.4692 90.7482 14.3729C90.5477 15.8717 90.3912 17.3749 90.281 18.8781C90.2501 19.255 90.2236 19.6253 90.2016 19.989Z" fill="#003366"/>
<path d="M98.5689 28.0296C98.4146 28.347 98.1545 28.6997 97.7842 29.0876C97.4183 29.4711 97.0017 29.7136 96.5323 29.8194C96.0606 29.9252 95.6153 29.7643 95.1922 29.3345C95.0268 29.1471 94.9056 28.9333 94.8307 28.6909C94.7535 28.444 94.7249 28.2016 94.7425 27.9591C94.7425 27.9018 94.7425 27.8224 94.7425 27.7211C94.7425 27.4698 94.7535 27.1788 94.7778 26.8482C94.7998 26.5132 94.8505 26.2134 94.9277 25.9489C95.0026 25.68 95.1238 25.5169 95.2891 25.464C95.7586 25.3406 96.0143 25.5037 96.0562 25.9489C96.0562 26.0966 96.0496 26.2399 96.0385 26.3809C96.0253 26.4581 96.0209 26.5286 96.0209 26.5925C96.0143 26.7997 96.0055 27.0047 95.9945 27.2097C95.9945 27.375 95.9856 27.5403 95.968 27.7034C95.9614 28.422 96.1223 28.8474 96.4529 28.9818C96.7879 29.1185 97.1671 28.973 97.5902 28.5498C98.0134 28.1266 98.289 27.774 98.419 27.4918C98.5534 27.2097 98.6504 27.1524 98.7099 27.3155C98.7672 27.4742 98.721 27.7122 98.5689 28.0296ZM96.3383 22.6427C96.3912 22.5502 96.4617 22.4929 96.5499 22.4752C96.6425 22.4532 96.7394 22.4466 96.8408 22.4576C96.8585 22.4576 96.8761 22.4576 96.8937 22.4576C96.9334 22.4708 96.9753 22.4752 97.0172 22.4752C97.2464 22.5281 97.372 22.6053 97.3963 22.7045C97.4249 22.7992 97.3985 22.9028 97.3169 23.013C97.2332 23.1188 97.145 23.2158 97.0524 23.304C96.8232 23.5575 96.5984 23.8484 96.3824 24.1768C96.1884 24.4479 96.0143 24.6617 95.8622 24.8204C95.7145 24.9747 95.6065 24.9923 95.536 24.8733C95.4412 24.8094 95.3905 24.7367 95.3861 24.6529C95.3861 24.5647 95.4037 24.4722 95.439 24.3708C95.5029 24.0887 95.6021 23.8242 95.7388 23.5773C95.8732 23.3304 96.0231 23.088 96.1884 22.8455C96.2281 22.7706 96.2788 22.7023 96.3383 22.6427Z" fill="#003366"/>
<path d="M104.483 27.1568C104.858 27.0642 105.008 27.0731 104.933 27.1833C104.862 27.2891 104.62 27.3949 104.21 27.5007C103.904 27.5844 103.639 27.6241 103.416 27.6241C103.192 27.6241 102.989 27.5513 102.808 27.4037C102.766 27.558 102.722 27.7078 102.676 27.8533C102.588 28.1487 102.499 28.4242 102.411 28.6821C102.306 29.0656 102.149 29.4227 101.944 29.7577C101.768 30.0398 101.534 30.2316 101.248 30.3308C100.965 30.4321 100.688 30.4321 100.419 30.3308C100.148 30.225 99.9251 30.0134 99.7487 29.696C99.5305 29.2375 99.3829 28.7592 99.3079 28.2589C99.1492 27.5183 99.0522 26.7667 99.017 26.0018C99.0037 25.8321 99.0082 25.6646 99.0258 25.4993C99.061 25.2833 99.1977 25.1731 99.4402 25.1731C99.6165 25.1797 99.7223 25.2855 99.7576 25.4905C99.7972 25.6911 99.8193 25.8938 99.8193 26.0988C99.8193 26.1826 99.8215 26.2487 99.8281 26.3016C99.8281 26.3721 99.8501 26.619 99.8986 27.0422C99.9515 27.461 100.026 27.9062 100.128 28.3823C100.227 28.854 100.348 29.2155 100.489 29.4667C100.63 29.7202 100.798 29.7136 100.992 29.4491C101.179 29.167 101.309 28.8628 101.38 28.5322C101.567 27.8798 101.743 27.2273 101.909 26.5749C101.973 26.2708 102.096 25.993 102.279 25.7462C102.477 25.4993 102.738 25.4376 103.055 25.561C103.13 25.5853 103.189 25.6227 103.231 25.6756C103.278 25.7285 103.293 25.788 103.275 25.852C103.262 25.9357 103.249 26.0173 103.231 26.0988C103.178 26.2641 103.136 26.4294 103.108 26.5926C103.084 26.7513 103.092 26.8791 103.134 26.9717C103.209 27.0775 103.39 27.1524 103.672 27.1921C103.954 27.234 104.223 27.2229 104.483 27.1568Z" fill="#003366"/>
<path d="M108.991 28.0296C108.837 28.347 108.577 28.6997 108.206 29.0876C107.841 29.4711 107.424 29.7136 106.955 29.8194C106.483 29.9252 106.038 29.7643 105.614 29.3345C105.449 29.1471 105.328 28.9333 105.253 28.6909C105.176 28.444 105.147 28.2016 105.165 27.9591C105.165 27.9018 105.165 27.8225 105.165 27.7211C105.165 27.4698 105.176 27.1789 105.2 26.8482C105.222 26.5132 105.273 26.2134 105.35 25.949C105.425 25.68 105.546 25.5169 105.711 25.464C106.181 25.3406 106.437 25.5037 106.478 25.949C106.478 26.0966 106.472 26.2399 106.461 26.381C106.448 26.4581 106.443 26.5286 106.443 26.5926C106.437 26.7997 106.428 27.0047 106.417 27.2097C106.417 27.375 106.408 27.5403 106.39 27.7034C106.384 28.422 106.545 28.8474 106.875 28.9818C107.21 29.1185 107.589 28.973 108.012 28.5498C108.436 28.1266 108.711 27.774 108.841 27.4918C108.976 27.2097 109.073 27.1524 109.132 27.3155C109.189 27.4742 109.143 27.7123 108.991 28.0296ZM106.381 23.93C106.315 23.9829 106.236 24.0181 106.143 24.0358C106.055 24.049 105.976 24.0402 105.905 24.0093C105.846 23.9696 105.808 23.9123 105.791 23.8418C105.777 23.7669 105.773 23.6809 105.773 23.5861C105.773 23.5641 105.777 23.542 105.791 23.5244C105.802 23.4362 105.826 23.3459 105.861 23.2511C105.96 23.0175 106.165 22.9073 106.478 22.9249C106.584 22.9425 106.666 22.991 106.725 23.066C106.789 23.1365 106.805 23.2224 106.769 23.3216C106.699 23.5641 106.569 23.7669 106.381 23.93Z" fill="#003366"/>
<path d="M117.824 27.2273C117.687 27.6461 117.418 28.1244 117.013 28.6644C116.611 29.2 116.109 29.5439 115.505 29.696C114.899 29.8502 114.376 29.8282 113.936 29.6342C113.495 29.4359 113.252 28.9091 113.213 28.0561C112.706 29.0259 112.227 29.6497 111.776 29.9252C111.322 30.1963 110.852 30.2999 110.365 30.2338C109.812 30.1456 109.439 29.9318 109.245 29.5902C109.047 29.2507 108.979 28.8562 109.042 28.4087C109.109 27.9569 109.243 27.5249 109.448 27.1127C109.611 26.8085 109.838 26.5264 110.127 26.2663C110.42 26.0018 110.726 25.7969 111.044 25.6492C111.432 25.4508 111.822 25.356 112.216 25.367C112.615 25.3737 113.041 25.5037 113.495 25.755C113.499 25.7682 113.504 25.7594 113.504 25.7285C113.504 25.6822 113.515 25.6271 113.539 25.561C113.561 25.4971 113.601 25.4442 113.654 25.4023C113.799 25.2921 113.973 25.2348 114.174 25.2348C114.379 25.2348 114.537 25.3384 114.65 25.5434C114.667 25.8079 114.641 26.1429 114.57 26.5485C114.405 27.4367 114.403 28.0781 114.562 28.4705C114.725 28.8584 115.013 29.0413 115.426 29.0171C115.842 28.9884 116.38 28.5807 117.039 27.7916C117.696 26.9981 117.958 26.8108 117.824 27.2273ZM110.515 29.3257C110.744 29.4844 111.004 29.4623 111.3 29.2551C111.593 29.0501 111.875 28.757 112.146 28.3735C112.415 27.9922 112.644 27.6109 112.834 27.2273C113.021 26.846 113.125 26.5639 113.142 26.3809C112.589 26.0878 112.113 26.0371 111.714 26.2311C111.319 26.425 111.004 26.7468 110.771 27.1921C110.535 27.6329 110.394 28.0627 110.347 28.4793C110.305 28.8981 110.361 29.1802 110.515 29.3257Z" fill="#003366"/>
<path d="M140.526 7.9633C140.808 8.04706 140.89 8.21016 140.773 8.45703C138.891 11.5957 137.233 14.8468 135.801 18.2081C134.372 21.565 133.063 24.9792 131.877 28.4529C131.106 30.7275 130.387 33.0198 129.717 35.3297C129.552 35.8808 129.391 36.4428 129.232 37.0137C129.12 37.3597 129.005 37.7014 128.889 38.0364C128.858 38.1598 128.82 38.2833 128.774 38.4067C128.62 38.8409 128.309 39.0327 127.839 38.9798C127.474 38.9489 127.224 38.7726 127.09 38.4508C126.949 38.0805 126.845 37.7102 126.781 37.3399C126.521 35.9866 126.283 34.6332 126.067 33.2755C125.521 29.8084 124.985 26.3435 124.463 22.8808C124.297 21.7589 124.139 20.6414 123.987 19.5306C123.815 18.3447 123.643 17.1567 123.466 15.9687C123.312 15.0231 123.153 14.082 122.99 13.1474C122.913 12.6956 122.836 12.2525 122.761 11.8161C122.743 11.7346 122.728 11.6486 122.717 11.5604C122.717 11.5318 122.708 11.4943 122.691 11.4458C122.691 11.4458 122.686 11.4458 122.682 11.4458C122.669 11.3709 122.664 11.2937 122.664 11.2166C122.646 11.0469 122.629 10.8727 122.611 10.6964C122.629 10.4804 122.746 10.3592 122.964 10.3349C123.427 10.271 123.709 10.4738 123.81 10.9433C123.81 10.9565 123.81 10.9653 123.81 10.9697C124.026 11.8999 124.218 12.8256 124.383 13.7469C124.665 15.5455 124.941 17.3397 125.212 19.125C125.223 19.1911 125.234 19.255 125.247 19.319C125.505 21.0646 125.768 22.8015 126.032 24.5295C126.149 25.3825 126.274 26.2311 126.411 27.0775C126.451 27.3839 126.493 27.6902 126.535 27.9944C126.676 28.8893 126.81 29.782 126.94 30.6746C127.156 32.0368 127.374 33.4033 127.593 34.7743C127.663 35.1975 127.729 35.6229 127.795 36.0527C127.806 36.088 127.815 36.1188 127.822 36.1497C127.822 36.1849 127.826 36.2158 127.839 36.2467C127.857 36.3348 127.901 36.3723 127.972 36.3613C128.007 36.348 128.036 36.337 128.06 36.326C128.088 36.3128 128.108 36.2996 128.122 36.2819C128.221 35.9822 128.311 35.6868 128.395 35.4003C129.975 29.8525 131.871 24.4325 134.081 19.1426C134.844 17.3264 135.679 15.5499 136.585 13.8086C137.489 12.063 138.454 10.3482 139.477 8.65981C139.559 8.50111 139.656 8.35123 139.768 8.21016C139.966 7.98093 140.22 7.89938 140.526 7.9633Z" fill="#003366"/>
<path d="M139.634 28.0296C139.479 28.347 139.219 28.6997 138.849 29.0876C138.483 29.4711 138.067 29.7136 137.597 29.8194C137.125 29.9252 136.68 29.7643 136.257 29.3345C136.092 29.1471 135.97 28.9333 135.895 28.6909C135.818 28.444 135.79 28.2016 135.807 27.9591C135.807 27.9018 135.807 27.8225 135.807 27.7211C135.807 27.4698 135.818 27.1789 135.843 26.8482C135.865 26.5132 135.915 26.2134 135.992 25.949C136.067 25.68 136.189 25.5169 136.354 25.464C136.823 25.3406 137.079 25.5037 137.121 25.949C137.121 26.0966 137.114 26.2399 137.103 26.381C137.09 26.4581 137.086 26.5286 137.086 26.5926C137.079 26.7997 137.07 27.0047 137.059 27.2097C137.059 27.375 137.05 27.5403 137.033 27.7034C137.026 28.422 137.187 28.8474 137.518 28.9818C137.853 29.1185 138.232 28.973 138.655 28.5498C139.078 28.1266 139.354 27.774 139.484 27.4918C139.618 27.2097 139.715 27.1524 139.775 27.3155C139.832 27.4742 139.786 27.7123 139.634 28.0296ZM137.024 23.93C136.958 23.9829 136.879 24.0181 136.786 24.0358C136.698 24.049 136.618 24.0402 136.548 24.0093C136.488 23.9696 136.451 23.9123 136.433 23.8418C136.42 23.7669 136.416 23.6809 136.416 23.5861C136.416 23.5641 136.42 23.542 136.433 23.5244C136.444 23.4362 136.469 23.3459 136.504 23.2511C136.603 23.0175 136.808 22.9073 137.121 22.9249C137.227 22.9425 137.308 22.991 137.368 23.066C137.432 23.1365 137.447 23.2224 137.412 23.3216C137.341 23.5641 137.211 23.7669 137.024 23.93Z" fill="#003366"/>
<path d="M147.223 27.4566C147.329 27.3926 147.435 27.3419 147.541 27.3067C147.646 27.2714 147.712 27.2758 147.743 27.3155C147.779 27.3574 147.737 27.4455 147.62 27.58C147.243 28.0098 146.796 28.3999 146.28 28.7526C145.762 29.1053 145.233 29.405 144.693 29.6519C144.263 29.8414 143.811 29.9935 143.335 30.1103C142.863 30.2227 142.396 30.247 141.933 30.1809C141.475 30.1169 141.054 29.912 140.672 29.5637C140.095 29.0303 139.857 28.3779 139.95 27.6064C140.038 26.9959 140.278 26.4757 140.672 26.0459C141.065 25.6183 141.563 25.3274 142.162 25.1731C142.661 25.0629 143.161 25.0497 143.661 25.1378C143.884 25.1687 144.089 25.2436 144.278 25.3671C144.455 25.4971 144.552 25.6536 144.569 25.8343C144.587 26.0107 144.519 26.1826 144.367 26.3457C144.049 26.6278 143.681 26.7953 143.265 26.8482C142.799 26.932 142.332 26.9805 141.863 26.9981C141.633 26.9981 141.47 27.0466 141.378 27.1392C141.29 27.2339 141.237 27.3948 141.219 27.6241C141.149 28.2412 141.347 28.7482 141.819 29.1405C142.105 29.3697 142.458 29.4667 142.877 29.4315C143.3 29.3962 143.745 29.286 144.217 29.0964C144.686 28.9025 145.145 28.6799 145.592 28.4264C146.044 28.1751 146.452 27.9327 146.818 27.7034C146.97 27.6042 147.104 27.5227 147.223 27.4566ZM142.065 26.1341C142.065 26.1473 142.057 26.1517 142.039 26.1517C142.021 26.1694 141.995 26.1936 141.96 26.2223C141.929 26.2531 141.9 26.2818 141.872 26.3104C141.841 26.3347 141.827 26.3523 141.827 26.3633C141.838 26.3942 141.927 26.403 142.092 26.3898C142.262 26.3721 142.447 26.3435 142.647 26.3016C142.852 26.2553 143.022 26.1958 143.159 26.1253C143.3 26.0547 143.344 25.971 143.291 25.8696C143.26 25.8409 143.229 25.8145 143.194 25.7902C143.159 25.7682 143.117 25.7528 143.071 25.7462C142.87 25.7462 142.687 25.7858 142.524 25.8608C142.365 25.9379 142.211 26.0283 142.065 26.1341Z" fill="#003366"/>
<path d="M151.741 28.0296C151.587 28.347 151.327 28.6997 150.956 29.0876C150.59 29.4711 150.174 29.7136 149.704 29.8194C149.233 29.9252 148.787 29.7643 148.364 29.3345C148.199 29.1471 148.078 28.9333 148.003 28.6909C147.926 28.444 147.897 28.2016 147.915 27.9591C147.915 27.9018 147.915 27.8225 147.915 27.7211C147.915 27.4698 147.926 27.1789 147.95 26.8482C147.972 26.5132 148.023 26.2134 148.1 25.949C148.175 25.68 148.296 25.5169 148.461 25.464C148.931 25.3406 149.186 25.5037 149.228 25.949C149.228 26.0966 149.222 26.2399 149.211 26.381C149.197 26.4581 149.193 26.5286 149.193 26.5926C149.186 26.7997 149.178 27.0047 149.167 27.2097C149.167 27.375 149.158 27.5403 149.14 27.7034C149.133 28.422 149.294 28.8474 149.625 28.9818C149.96 29.1185 150.339 28.973 150.762 28.5498C151.185 28.1266 151.461 27.774 151.591 27.4918C151.726 27.2097 151.822 27.1524 151.882 27.3155C151.939 27.4742 151.893 27.7123 151.741 28.0296ZM149.131 23.93C149.065 23.9829 148.986 24.0181 148.893 24.0358C148.805 24.049 148.726 24.0402 148.655 24.0093C148.596 23.9696 148.558 23.9123 148.541 23.8418C148.527 23.7669 148.523 23.6809 148.523 23.5861C148.523 23.5641 148.527 23.542 148.541 23.5244C148.552 23.4362 148.576 23.3459 148.611 23.2511C148.71 23.0175 148.915 22.9073 149.228 22.9249C149.334 22.9425 149.416 22.991 149.475 23.066C149.539 23.1365 149.554 23.2224 149.519 23.3216C149.449 23.5641 149.319 23.7669 149.131 23.93Z" fill="#003366"/>
<path d="M156.906 27.4918C156.998 27.2979 157.065 27.2097 157.1 27.2273C157.135 27.2405 157.144 27.3155 157.126 27.4566C157.109 27.5976 157.078 27.7563 157.038 27.9326C156.972 28.2038 156.862 28.5211 156.703 28.8848C156.544 29.2441 156.368 29.5681 156.174 29.8546C155.885 30.2602 155.53 30.5666 155.107 30.7716C154.684 30.9787 154.298 31.0316 153.952 30.9303C153.611 30.8245 153.415 30.4982 153.362 29.9516C153.348 29.4998 153.388 28.9994 153.476 28.4528C153.505 28.2236 153.538 28.001 153.573 27.7828C153.573 27.7078 153.551 27.6483 153.512 27.6064C153.476 27.5601 153.426 27.5425 153.362 27.5535C153.313 27.5535 153.265 27.5535 153.212 27.5535C152.941 27.602 152.665 27.5954 152.383 27.5359C152.044 27.4433 151.845 27.278 151.792 27.0422C151.739 26.8085 151.746 26.5 151.81 26.1164C151.845 25.8409 151.949 25.6359 152.119 25.4993C152.282 25.3648 152.48 25.3097 152.709 25.3318C153.027 25.3626 153.179 25.4861 153.168 25.7021C153.154 25.9137 153.097 26.1407 152.991 26.3809C152.89 26.5881 152.837 26.7578 152.833 26.8923C152.826 27.029 152.943 27.0752 153.185 27.0334C153.238 27.0223 153.296 27.0047 153.362 26.9805C153.45 26.9452 153.549 26.9165 153.661 26.8923C153.778 26.8636 153.928 26.857 154.111 26.8747C154.327 26.8813 154.473 26.9805 154.543 27.1744C154.614 27.364 154.642 27.602 154.631 27.8886C154.625 28.1773 154.598 28.4682 154.552 28.7614C154.499 29.1383 154.473 29.4579 154.473 29.7224C154.473 29.9869 154.547 30.1412 154.702 30.1809C154.907 30.2404 155.209 30.0574 155.61 29.6342C156.015 29.211 156.447 28.4969 156.906 27.4918Z" fill="#003366"/>
<path d="M165.755 27.2273C165.618 27.6461 165.349 28.1244 164.944 28.6644C164.543 29.2 164.04 29.5439 163.436 29.696C162.83 29.8502 162.308 29.8282 161.867 29.6342C161.426 29.4359 161.184 28.9091 161.144 28.0561C160.637 29.0259 160.159 29.6497 159.707 29.9252C159.253 30.1963 158.783 30.2999 158.296 30.2338C157.743 30.1456 157.37 29.9318 157.176 29.5902C156.978 29.2507 156.91 28.8562 156.974 28.4087C157.04 27.9569 157.174 27.5249 157.379 27.1127C157.542 26.8085 157.769 26.5264 158.058 26.2663C158.351 26.0018 158.658 25.7969 158.975 25.6492C159.363 25.4508 159.753 25.356 160.148 25.367C160.547 25.3737 160.972 25.5037 161.426 25.755C161.43 25.7682 161.435 25.7594 161.435 25.7285C161.435 25.6822 161.446 25.6271 161.47 25.561C161.492 25.4971 161.532 25.4442 161.585 25.4023C161.73 25.2921 161.904 25.2348 162.105 25.2348C162.31 25.2348 162.469 25.3384 162.581 25.5434C162.599 25.8079 162.572 26.1429 162.502 26.5485C162.336 27.4367 162.334 28.0781 162.493 28.4705C162.656 28.8584 162.945 29.0413 163.357 29.0171C163.773 28.9884 164.311 28.5807 164.97 27.7916C165.627 26.9981 165.889 26.8108 165.755 27.2273ZM158.446 29.3257C158.675 29.4844 158.935 29.4623 159.231 29.2551C159.524 29.0501 159.806 28.757 160.077 28.3735C160.346 27.9922 160.575 27.6109 160.765 27.2273C160.952 26.846 161.056 26.5639 161.073 26.3809C160.52 26.0878 160.044 26.0371 159.645 26.2311C159.251 26.425 158.935 26.7468 158.702 27.1921C158.466 27.6329 158.325 28.0627 158.279 28.4793C158.237 28.8981 158.292 29.1802 158.446 29.3257Z" fill="#003366"/>
<path d="M73.5597 41.2892C72.7171 41.2892 72.0532 41.569 71.5708 42.1228C71.0855 42.6796 70.8443 43.4418 70.8443 44.4095C70.8443 45.4099 71.0766 46.184 71.547 46.7319C72.0145 47.2738 72.6814 47.5417 73.5478 47.5417C74.0778 47.5417 74.6852 47.4464 75.37 47.2559V48.03C74.837 48.2265 74.185 48.3278 73.4168 48.3278C72.2884 48.3278 71.419 47.9883 70.8086 47.3035C70.2042 46.6217 69.9035 45.654 69.9035 44.3976C69.9035 43.6115 70.0494 42.9267 70.3441 42.3372C70.6359 41.7507 71.0587 41.2981 71.6066 40.9795C72.1604 40.655 72.8154 40.4912 73.5716 40.4912C74.3636 40.4912 75.0633 40.6401 75.6677 40.9319L75.2866 41.6941C74.706 41.4261 74.1314 41.2892 73.5597 41.2892Z" fill="#0275D8"/>
<path d="M78.6487 48.2206H77.7793V42.5039H78.6487V48.2206ZM77.7079 40.9676C77.7079 40.7711 77.7555 40.6222 77.8508 40.5269C77.9461 40.4316 78.0682 40.384 78.22 40.384C78.354 40.384 78.4731 40.4316 78.5773 40.5269C78.6785 40.6222 78.7321 40.7711 78.7321 40.9676C78.7321 41.1581 78.6785 41.301 78.5773 41.3963C78.4731 41.4916 78.354 41.5392 78.22 41.5392C78.0682 41.5392 77.9461 41.4916 77.8508 41.3963C77.7555 41.301 77.7079 41.1581 77.7079 40.9676Z" fill="#0275D8"/>
<path d="M83.9708 42.4087C84.2239 42.4087 84.4502 42.4295 84.6496 42.4682L84.5305 43.2662C84.2924 43.2185 84.0839 43.1947 83.9112 43.1947C83.4408 43.1947 83.0448 43.3823 82.7203 43.7545C82.3928 44.1296 82.232 44.5971 82.232 45.1598V48.2206H81.3626V42.5039H82.0772L82.1724 43.5639H82.2201C82.4255 43.1917 82.6786 42.9059 82.9823 42.7064C83.283 42.5099 83.6135 42.4087 83.9708 42.4087Z" fill="#0275D8"/>
<path d="M87.4117 42.5039V46.2197C87.4117 46.6812 87.5189 47.0266 87.7332 47.2559C87.9476 47.4881 88.2811 47.6012 88.7336 47.6012C89.3291 47.6012 89.7609 47.4405 90.0318 47.1129C90.3087 46.7884 90.4486 46.2525 90.4486 45.5051V42.5039H91.318V48.2205H90.6035L90.4844 47.4583H90.4367C90.2521 47.7382 90.002 47.9526 89.6864 48.1014C89.3768 48.2503 89.0195 48.3277 88.6145 48.3277C87.9238 48.3277 87.4027 48.1669 87.0544 47.8394C86.712 47.506 86.5423 46.976 86.5423 46.2435V42.5039H87.4117Z" fill="#0275D8"/>
<path d="M96.6416 42.4087C96.8947 42.4087 97.121 42.4295 97.3205 42.4682L97.2014 43.2662C96.9632 43.2185 96.7547 43.1947 96.5821 43.1947C96.1116 43.1947 95.7156 43.3823 95.3911 43.7545C95.0636 44.1296 94.9028 44.5971 94.9028 45.1598V48.2206H94.0334V42.5039H94.748L94.8432 43.5639H94.8909C95.0963 43.1917 95.3494 42.9059 95.6531 42.7064C95.9538 42.5099 96.2843 42.4087 96.6416 42.4087Z" fill="#0275D8"/>
<path d="M103.941 42.5039V43.0518L102.893 43.1828C102.988 43.3019 103.072 43.4627 103.143 43.6592C103.221 43.8587 103.262 44.082 103.262 44.3261C103.262 44.8829 103.072 45.3265 102.691 45.66C102.31 45.9935 101.786 46.1602 101.119 46.1602C100.943 46.1602 100.785 46.1483 100.642 46.1245C100.267 46.315 100.082 46.5592 100.082 46.851C100.082 47.0117 100.145 47.1308 100.273 47.2083C100.407 47.2797 100.63 47.3154 100.94 47.3154H101.952C102.572 47.3154 103.042 47.4464 103.37 47.7085C103.703 47.9645 103.87 48.3397 103.87 48.8399C103.87 49.4741 103.614 49.9534 103.108 50.2809C102.607 50.6144 101.869 50.7811 100.892 50.7811C100.145 50.7811 99.5704 50.6412 99.1654 50.3643C98.7605 50.0844 98.558 49.6914 98.558 49.1853C98.558 48.8429 98.6682 48.5451 98.8915 48.292C99.1118 48.039 99.4274 47.8633 99.8324 47.768C99.6805 47.7055 99.5585 47.6072 99.4632 47.4703C99.3679 47.3273 99.3203 47.1666 99.3203 46.982C99.3203 46.7765 99.3739 46.5949 99.487 46.4341C99.5972 46.2763 99.7728 46.1245 100.011 45.9816C99.7163 45.8625 99.4751 45.657 99.2845 45.3623C99.0999 45.0705 99.0106 44.737 99.0106 44.3618C99.0106 43.7366 99.1952 43.2542 99.5704 42.9208C99.9425 42.5814 100.475 42.4087 101.166 42.4087C101.458 42.4087 101.729 42.4414 101.976 42.5039H103.941ZM99.3917 49.1853C99.3917 49.486 99.5227 49.7152 99.7847 49.876C100.047 50.0428 100.419 50.1261 100.904 50.1261C101.625 50.1261 102.161 50.013 102.512 49.7926C102.86 49.5783 103.036 49.2835 103.036 48.9113C103.036 48.6017 102.941 48.3873 102.75 48.2682C102.56 48.1491 102.202 48.0896 101.678 48.0896H100.642C100.243 48.0896 99.9336 48.1819 99.7133 48.3635C99.4989 48.554 99.3917 48.828 99.3917 49.1853ZM99.8562 44.338C99.8562 44.737 99.9664 45.0377 100.19 45.2432C100.419 45.4516 100.738 45.5528 101.142 45.5528C101.982 45.5528 102.405 45.1449 102.405 44.3261C102.405 43.4686 101.979 43.0399 101.131 43.0399C100.726 43.0399 100.41 43.153 100.19 43.3733C99.9664 43.5877 99.8562 43.9093 99.8562 44.338Z" fill="#0275D8"/>
<path d="M106.871 48.2206H106.001V42.5039H106.871V48.2206ZM105.93 40.9676C105.93 40.7711 105.977 40.6222 106.073 40.5269C106.168 40.4316 106.29 40.384 106.442 40.384C106.576 40.384 106.695 40.4316 106.799 40.5269C106.9 40.6222 106.954 40.7711 106.954 40.9676C106.954 41.1581 106.9 41.301 106.799 41.3963C106.695 41.4916 106.576 41.5392 106.442 41.5392C106.29 41.5392 106.168 41.4916 106.073 41.3963C105.977 41.301 105.93 41.1581 105.93 40.9676Z" fill="#0275D8"/>
<path d="M113.098 48.2206L112.919 47.4107H112.883C112.598 47.768 112.312 48.0122 112.026 48.1372C111.746 48.2623 111.395 48.3278 110.966 48.3278C110.4 48.3278 109.957 48.1819 109.632 47.8871C109.314 47.5953 109.156 47.1785 109.156 46.6366C109.156 45.4873 110.076 44.8829 111.919 44.8263L112.895 44.8025V44.4452C112.895 43.9927 112.794 43.6651 112.598 43.4567C112.407 43.2423 112.1 43.1352 111.681 43.1352C111.204 43.1352 110.662 43.2781 110.061 43.5639L109.799 42.9089C110.076 42.7511 110.382 42.632 110.716 42.5516C111.055 42.4652 111.395 42.4206 111.728 42.4206C112.41 42.4206 112.913 42.5724 113.241 42.8731C113.574 43.1768 113.741 43.6592 113.741 44.3261V48.2206H113.098ZM111.145 47.6132C111.684 47.6132 112.103 47.4673 112.407 47.1725C112.717 46.8718 112.872 46.455 112.872 45.922V45.4099L112.002 45.4456C111.317 45.4694 110.823 45.5766 110.513 45.7672C110.21 45.9577 110.061 46.2525 110.061 46.6485C110.061 46.9671 110.156 47.2083 110.347 47.375C110.537 47.5358 110.802 47.6132 111.145 47.6132ZM112.776 41.7417C112.624 41.7417 112.479 41.712 112.336 41.6464C112.193 41.5839 112.053 41.5125 111.919 41.4321C111.782 41.3547 111.651 41.2832 111.526 41.2177C111.398 41.1552 111.276 41.1224 111.157 41.1224C110.981 41.1224 110.85 41.176 110.764 41.2772C110.674 41.3815 110.603 41.5393 110.549 41.7536H110.049C110.088 41.3338 110.207 41.0033 110.406 40.7651C110.612 40.5269 110.871 40.4078 111.18 40.4078C111.338 40.4078 111.493 40.4406 111.645 40.5031C111.794 40.5686 111.937 40.6401 112.074 40.7175C112.208 40.7979 112.339 40.8693 112.467 40.9319C112.592 40.9974 112.711 41.0271 112.824 41.0271C112.991 41.0271 113.113 40.9765 113.193 40.8723C113.279 40.7711 113.351 40.6103 113.408 40.3959H113.92C113.872 40.8187 113.747 41.1462 113.55 41.3844C113.36 41.6226 113.101 41.7417 112.776 41.7417Z" fill="#0275D8"/>
<path d="M126.275 44.338C126.275 45.5945 125.932 46.5532 125.25 47.2202C124.566 47.8871 123.583 48.2206 122.297 48.2206H120.189V40.5984H122.523C123.705 40.5984 124.625 40.9289 125.286 41.5869C125.944 42.2479 126.275 43.1649 126.275 44.338ZM125.334 44.3737C125.334 43.3823 125.084 42.6349 124.583 42.1347C124.083 41.6286 123.339 41.3725 122.356 41.3725H121.07V47.4584H122.154C123.208 47.4584 124.003 47.2023 124.536 46.6842C125.066 46.1602 125.334 45.392 125.334 44.3737Z" fill="#0275D8"/>
<path d="M131.136 48.3278C130.284 48.3278 129.615 48.0717 129.123 47.5536C128.638 47.0385 128.397 46.324 128.397 45.4099C128.397 44.4899 128.623 43.7604 129.076 43.2185C129.534 42.6796 130.148 42.4087 130.91 42.4087C131.624 42.4087 132.187 42.6439 132.601 43.1113C133.021 43.5818 133.232 44.2011 133.232 44.9692V45.5171H129.302C129.317 46.193 129.484 46.7051 129.802 47.0534C130.127 47.3958 130.579 47.5655 131.16 47.5655C131.779 47.5655 132.387 47.4405 132.982 47.1844V47.9586C132.678 48.0866 132.39 48.1789 132.113 48.2325C131.842 48.295 131.517 48.3278 131.136 48.3278ZM130.898 43.1351C130.436 43.1351 130.067 43.287 129.79 43.5877C129.519 43.8825 129.361 44.2904 129.314 44.8144H132.303C132.303 44.2755 132.178 43.8616 131.934 43.5758C131.696 43.284 131.35 43.1351 130.898 43.1351Z" fill="#0275D8"/>
<path d="M139.494 48.2206V44.5286C139.494 44.0611 139.387 43.7128 139.172 43.4805C138.964 43.2513 138.636 43.1351 138.184 43.1351C137.588 43.1351 137.151 43.2989 136.874 43.6234C136.594 43.951 136.457 44.4809 136.457 45.2193V48.2206H135.588V42.5039H136.29L136.433 43.29H136.469C136.65 43.0131 136.901 42.7987 137.219 42.6469C137.535 42.4891 137.892 42.4087 138.291 42.4087C138.973 42.4087 139.488 42.5754 139.839 42.9089C140.188 43.2364 140.363 43.7634 140.363 44.4929V48.2206H139.494Z" fill="#0275D8"/>
<path d="M144.865 47.6132C145.014 47.6132 145.163 47.6012 145.306 47.5774C145.449 47.5536 145.562 47.5298 145.651 47.506V48.1729C145.556 48.2146 145.416 48.2473 145.234 48.2801C145.05 48.3099 144.883 48.3277 144.734 48.3277C143.629 48.3277 143.079 47.7442 143.079 46.577V43.1828H142.269V42.7659L143.079 42.4086L143.448 41.1819H143.948V42.5039H145.604V43.1828H143.948V46.5413C143.948 46.8837 144.025 47.1487 144.186 47.3392C144.353 47.5238 144.579 47.6132 144.865 47.6132Z" fill="#0275D8"/>
<path d="M148.539 48.2206H147.67V42.5039H148.539V48.2206ZM147.599 40.9676C147.599 40.7711 147.646 40.6222 147.741 40.5269C147.837 40.4316 147.959 40.384 148.111 40.384C148.245 40.384 148.364 40.4316 148.468 40.5269C148.569 40.6222 148.623 40.7711 148.623 40.9676C148.623 41.1581 148.569 41.301 148.468 41.3963C148.364 41.4916 148.245 41.5392 148.111 41.5392C147.959 41.5392 147.837 41.4916 147.741 41.3963C147.646 41.301 147.599 41.1581 147.599 40.9676Z" fill="#0275D8"/>
<path d="M154.933 46.6604C154.933 47.1934 154.734 47.6072 154.338 47.899C153.948 48.1848 153.391 48.3278 152.67 48.3278C151.914 48.3278 151.328 48.2087 150.908 47.9705V47.1606C151.176 47.3035 151.468 47.4167 151.777 47.4941C152.093 47.5745 152.399 47.6132 152.694 47.6132C153.147 47.6132 153.492 47.5417 153.73 47.3988C153.975 47.2499 154.1 47.0266 154.1 46.7319C154.1 46.5115 154.004 46.321 153.814 46.1602C153.623 46.0024 153.245 45.8148 152.682 45.6004C152.149 45.4039 151.771 45.2312 151.551 45.0883C151.328 44.9395 151.161 44.7727 151.051 44.5881C150.938 44.3976 150.884 44.1713 150.884 43.9093C150.884 43.4508 151.075 43.0845 151.456 42.8136C151.837 42.5456 152.355 42.4087 153.016 42.4087C153.626 42.4087 154.225 42.5337 154.814 42.7779L154.505 43.4805C153.933 43.2513 153.415 43.1351 152.956 43.1351C152.542 43.1351 152.233 43.2007 152.027 43.3257C151.819 43.4537 151.718 43.6294 151.718 43.8497C151.718 44.0105 151.753 44.1445 151.825 44.2547C151.902 44.3589 152.03 44.4571 152.206 44.5524C152.379 44.6477 152.712 44.7876 153.206 44.9692C153.879 45.2164 154.338 45.4665 154.576 45.7195C154.814 45.9667 154.933 46.2793 154.933 46.6604Z" fill="#0275D8"/>
<path d="M159.073 47.6132C159.221 47.6132 159.37 47.6012 159.513 47.5774C159.656 47.5536 159.769 47.5298 159.859 47.506V48.1729C159.763 48.2146 159.623 48.2473 159.442 48.2801C159.257 48.3099 159.09 48.3277 158.942 48.3277C157.837 48.3277 157.286 47.7442 157.286 46.577V43.1828H156.476V42.7659L157.286 42.4086L157.655 41.1819H158.156V42.5039H159.811V43.1828H158.156V46.5413C158.156 46.8837 158.233 47.1487 158.394 47.3392C158.561 47.5238 158.787 47.6132 159.073 47.6132Z" fill="#0275D8"/>
<path d="M165.391 48.2206L165.212 47.4107H165.176C164.891 47.768 164.605 48.0122 164.319 48.1372C164.039 48.2623 163.688 48.3278 163.259 48.3278C162.693 48.3278 162.25 48.1819 161.925 47.8871C161.606 47.5953 161.449 47.1785 161.449 46.6366C161.449 45.4873 162.369 44.8829 164.212 44.8263L165.188 44.8025V44.4452C165.188 43.9927 165.087 43.6652 164.891 43.4567C164.7 43.2424 164.393 43.1352 163.974 43.1352C163.497 43.1352 162.955 43.2781 162.354 43.5639L162.092 42.9089C162.369 42.7511 162.675 42.632 163.009 42.5516C163.348 42.4653 163.688 42.4206 164.021 42.4206C164.703 42.4206 165.206 42.5724 165.534 42.8732C165.867 43.1769 166.034 43.6592 166.034 44.3261V48.2206H165.391ZM163.438 47.6132C163.976 47.6132 164.396 47.4673 164.7 47.1725C165.01 46.8718 165.164 46.455 165.164 45.922V45.4099L164.295 45.4456C163.61 45.4695 163.116 45.5767 162.806 45.7672C162.503 45.9578 162.354 46.2525 162.354 46.6485C162.354 46.9671 162.449 47.2083 162.64 47.375C162.83 47.5358 163.095 47.6132 163.438 47.6132Z" fill="#0275D8"/>
</svg>
